<svg xmlns="http://www.w3.org/2000/svg" viewBox="0 0 300 80">
  <!-- Background -->
  <defs>
    <linearGradient id="lotusGrad" x1="0%" y1="0%" x2="100%" y2="100%">
      <stop offset="0%" style="stop-color:#FF9933"/>
      <stop offset="100%" style="stop-color:#FF6600"/>
    </linearGradient>
    <linearGradient id="textGrad" x1="0%" y1="0%" x2="100%" y2="0%">
      <stop offset="0%" style="stop-color:#8B4513"/>
      <stop offset="100%" style="stop-color:#6B3410"/>
    </linearGradient>
  </defs>

  <!-- Diya/Lamp Base -->
  <ellipse cx="40" cy="58" rx="18" ry="6" fill="#CD853F"/>
  <path d="M22 52 Q22 58 40 58 Q58 58 58 52 L55 45 Q40 48 25 45 Z" fill="#DEB887"/>

  <!-- Flame -->
  <path d="M40 15 Q48 28 45 38 Q42 45 40 45 Q38 45 35 38 Q32 28 40 15" fill="url(#lotusGrad)"/>
  <path d="M40 22 Q44 30 42 36 Q41 40 40 40 Q39 40 38 36 Q36 30 40 22" fill="#FFD700"/>

  <!-- Lotus petals around flame -->
  <path d="M28 42 Q32 35 36 40 Q32 45 28 42" fill="#FF9933" opacity="0.8"/>
  <path d="M52 42 Q48 35 44 40 Q48 45 52 42" fill="#FF9933" opacity="0.8"/>

  <!-- Text: Seva -->
  <text x="75" y="52" font-family="Georgia, serif" font-size="36" font-weight="bold" fill="url(#textGrad)">Seva</text>

  <!-- Text: Marketplace -->
  <text x="160" y="52" font-family="Georgia, serif" font-size="24" fill="#666666">Marketplace</text>

  <!-- Small Om symbol -->
  <text x="70" y="25" font-family="Arial" font-size="14" fill="#FF9933">ॐ</text>
</svg>